<svg width="60" height="45" viewBox="0 0 60 45" fill="none" xmlns="http://www.w3.org/2000/svg"><path d="M53.93 42.955c0 .542-.213 1.062-.592 1.446-.38.383-.894.599-1.43.599H15.49a2.012 2.012 0 0 1-1.43-.6 2.057 2.057 0 0 1-.593-1.445c0-.543.213-1.063.593-1.447.38-.383.894-.599 1.43-.599h36.417c.537 0 1.052.216 1.43.6.38.383.593.903.593 1.446ZM60 22.5v6.136c0 .543-.213 1.063-.593 1.447a2.013 2.013 0 0 1-1.43.599h-44.56a9.993 9.993 0 0 1-6.044-2.012 10.177 10.177 0 0 1-3.642-5.275L.165 11.403a4.212 4.212 0 0 1 .632-3.63 4.105 4.105 0 0 1 1.442-1.205 4.06 4.06 0 0 1 1.82-.432h4.35a1.98 1.98 0 0 1 1.543.742l4.451 5.395h4.35l-2.276-6.878a4.132 4.132 0 0 1 .552-3.695A4.06 4.06 0 0 1 18.472.448 4.01 4.01 0 0 1 20.32 0h4.274a1.98 1.98 0 0 1 1.492.665l10.52 11.608h13.277a10.06 10.06 0 0 1 7.153 2.995A10.285 10.285 0 0 1 60 22.5Zm-4.046 0a6.196 6.196 0 0 0-1.785-4.332 6.061 6.061 0 0 0-4.285-1.804H35.722a1.982 1.982 0 0 1-1.492-.665L23.71 4.09h-3.39l3.162 9.588a2.093 2.093 0 0 1-.278 1.84 2.002 2.002 0 0 1-1.644.845h-8.093a1.981 1.981 0 0 1-1.542-.742l-4.451-5.395h-3.44L7.6 22.22a6.11 6.11 0 0 0 2.188 3.165 6 6 0 0 0 3.629 1.207h42.537V22.5Z" fill="#fff"/></svg>