<svg width="52" height="52" viewBox="0 0 52 52" fill="none" xmlns="http://www.w3.org/2000/svg"><path d="M13.722 28.889a3.612 3.612 0 1 0 0-7.223 3.612 3.612 0 0 0 0 7.223Zm15.89-3.611a3.61 3.61 0 1 1-7.222 0 3.61 3.61 0 0 1 7.221 0Zm8.666 3.61a3.611 3.611 0 1 0 0-7.221 3.611 3.611 0 0 0 0 7.222Zm-20.945 7.945a3.611 3.611 0 1 1-7.222 0 3.611 3.611 0 0 1 7.222 0ZM26 40.444a3.611 3.611 0 1 0 0-7.222 3.611 3.611 0 0 0 0 7.222ZM0 9.028A9.028 9.028 0 0 1 9.028 0h33.944A9.028 9.028 0 0 1 52 9.028v33.944A9.027 9.027 0 0 1 42.972 52H9.028A9.028 9.028 0 0 1 0 42.972V9.028ZM9.028 3.61A5.417 5.417 0 0 0 3.61 9.028v2.528h44.78V9.028a5.417 5.417 0 0 0-5.417-5.417H9.028ZM3.61 42.972a5.417 5.417 0 0 0 5.417 5.417h33.944a5.417 5.417 0 0 0 5.417-5.417V15.167H3.61v27.805Z" fill="#fff"/></svg>